<mxfile host="app.diagrams.net" agent="Mozilla/5.0 (Windows NT 10.0; Win64; x64) AppleWebKit/537.36 (KHTML, like Gecko) Chrome/130.0.0.0 Safari/537.36 Edg/130.0.0.0" version="24.8.4">
  <diagram name="Page-1" id="WeyG7XfbOJ_xJVO0oIKB">
    <mxGraphModel dx="830" dy="416" grid="1" gridSize="10" guides="1" tooltips="1" connect="1" arrows="1" fold="1" page="1" pageScale="1" pageWidth="827" pageHeight="1169" math="0" shadow="0">
      <root>
        <mxCell id="0" />
        <mxCell id="1" parent="0" />
        <mxCell id="hCOVN7U9ZV8JdHdbi3Au-1" value="" style="whiteSpace=wrap;html=1;aspect=fixed;" vertex="1" parent="1">
          <mxGeometry x="100" y="130" width="770" height="770" as="geometry" />
        </mxCell>
        <mxCell id="hCOVN7U9ZV8JdHdbi3Au-2" value="" style="image;aspect=fixed;html=1;points=[];align=center;fontSize=12;image=img/lib/azure2/networking/Virtual_Networks.svg;" vertex="1" parent="1">
          <mxGeometry x="690" y="130" width="67" height="40" as="geometry" />
        </mxCell>
        <mxCell id="hCOVN7U9ZV8JdHdbi3Au-3" value="" style="whiteSpace=wrap;html=1;aspect=fixed;" vertex="1" parent="1">
          <mxGeometry x="150" y="180" width="330" height="330" as="geometry" />
        </mxCell>
        <mxCell id="hCOVN7U9ZV8JdHdbi3Au-4" value="" style="whiteSpace=wrap;html=1;aspect=fixed;" vertex="1" parent="1">
          <mxGeometry x="150" y="550" width="330" height="330" as="geometry" />
        </mxCell>
        <mxCell id="hCOVN7U9ZV8JdHdbi3Au-5" value="" style="verticalLabelPosition=bottom;html=1;verticalAlign=top;align=center;strokeColor=none;fillColor=#00BEF2;shape=mxgraph.azure.virtual_network;pointerEvents=1;" vertex="1" parent="1">
          <mxGeometry x="414" y="190" width="50" height="27.500000000000004" as="geometry" />
        </mxCell>
        <mxCell id="hCOVN7U9ZV8JdHdbi3Au-6" value="" style="verticalLabelPosition=bottom;html=1;verticalAlign=top;align=center;strokeColor=none;fillColor=#00BEF2;shape=mxgraph.azure.virtual_network;pointerEvents=1;" vertex="1" parent="1">
          <mxGeometry x="420" y="557" width="50" height="27.500000000000004" as="geometry" />
        </mxCell>
        <mxCell id="hCOVN7U9ZV8JdHdbi3Au-7" value="" style="outlineConnect=0;dashed=0;verticalLabelPosition=bottom;verticalAlign=top;align=center;html=1;shape=mxgraph.aws3.internet_gateway;fillColor=#F58536;gradientColor=none;" vertex="1" parent="1">
          <mxGeometry x="840" y="360" width="69" height="72" as="geometry" />
        </mxCell>
        <mxCell id="hCOVN7U9ZV8JdHdbi3Au-8" value="VPC" style="text;html=1;align=center;verticalAlign=middle;whiteSpace=wrap;rounded=0;" vertex="1" parent="1">
          <mxGeometry x="620" y="135" width="60" height="30" as="geometry" />
        </mxCell>
        <mxCell id="hCOVN7U9ZV8JdHdbi3Au-9" value="Subnet" style="text;html=1;align=center;verticalAlign=middle;whiteSpace=wrap;rounded=0;" vertex="1" parent="1">
          <mxGeometry x="354" y="188.75" width="60" height="30" as="geometry" />
        </mxCell>
        <mxCell id="hCOVN7U9ZV8JdHdbi3Au-10" value="Subnet" style="text;html=1;align=center;verticalAlign=middle;whiteSpace=wrap;rounded=0;" vertex="1" parent="1">
          <mxGeometry x="360" y="555.75" width="60" height="30" as="geometry" />
        </mxCell>
        <mxCell id="hCOVN7U9ZV8JdHdbi3Au-11" value="Internet Gateway" style="text;html=1;align=center;verticalAlign=middle;whiteSpace=wrap;rounded=0;" vertex="1" parent="1">
          <mxGeometry x="740" y="320" width="110" height="30" as="geometry" />
        </mxCell>
        <mxCell id="hCOVN7U9ZV8JdHdbi3Au-12" value="" style="outlineConnect=0;dashed=0;verticalLabelPosition=bottom;verticalAlign=top;align=center;html=1;shape=mxgraph.aws3.route_table;fillColor=#F58536;gradientColor=none;" vertex="1" parent="1">
          <mxGeometry x="620" y="210" width="75" height="69" as="geometry" />
        </mxCell>
        <mxCell id="hCOVN7U9ZV8JdHdbi3Au-13" value="Route Table" style="text;html=1;align=center;verticalAlign=middle;whiteSpace=wrap;rounded=0;" vertex="1" parent="1">
          <mxGeometry x="610" y="280" width="120" height="30" as="geometry" />
        </mxCell>
      </root>
    </mxGraphModel>
  </diagram>
</mxfile>
